<svg width="80" height="80" viewBox="0 0 80 80" fill="none" xmlns="http://www.w3.org/2000/svg">
<g clip-path="url(#clip0_22_2)">
<path d="M63.0933 0.00146484H16.9067C7.56939 0.00146484 0 7.57091 0 16.9082V63.0949C0 72.4322 7.56939 80.0015 16.9067 80.0015H63.0933C72.4306 80.0015 80 72.4322 80 63.0949V16.9082C80 7.57091 72.4306 0.00146484 63.0933 0.00146484Z" fill="url(#paint0_linear_22_2)"/>
<path d="M40 11.6672C37.2287 11.6672 35 13.8961 35 16.6672C35 19.3664 37.1211 21.5554 39.7917 21.6672C40 21.6672 40 21.6672 40.2083 21.6672C42.8789 21.5556 45 19.3664 45 16.6672C45 13.8961 42.7713 11.6672 40 11.6672ZM41.9271 14.1154L43.0729 15.2612L39.7396 18.5945L39.1667 19.2195L38.5937 18.5945L36.9271 16.9279L38.0729 15.782L39.1667 16.8756L41.9271 14.1154ZM39.1667 23.2297V25.8339C39.1667 26.2702 39.5637 26.6672 40 26.6672H43.3333C43.9553 26.6672 44.3209 26.841 44.5833 27.1362C44.8457 27.4314 45 27.8445 45 28.282C45 28.7195 44.8457 29.1844 44.5833 29.4797C44.3209 29.7749 43.9553 29.9487 43.3333 29.9487H36.6667C35.6281 29.9487 34.7345 30.4034 34.1667 31.0422C33.5988 31.6812 33.3333 32.4742 33.3333 33.282C33.3333 34.0898 33.5988 34.9348 34.1667 35.5737C34.7345 36.2125 35.6281 36.6153 36.6667 36.6153H39.1667V38.2297H40.8333V35.782C40.8333 35.3457 40.4363 34.9487 40 34.9487H36.6667C36.0447 34.9487 35.6791 34.723 35.4167 34.4278C35.1543 34.1327 35 33.7195 35 33.282C35 32.8445 35.1543 32.4313 35.4167 32.1362C35.6791 31.841 36.0447 31.6153 36.6667 31.6153H43.3333C44.3719 31.6153 45.2655 31.2125 45.8333 30.5737C46.4012 29.9348 46.6667 29.0898 46.6667 28.282C46.6667 27.4742 46.4012 26.6811 45.8333 26.0422C45.2655 25.4036 44.3719 25.0006 43.3333 25.0006H40.8333V23.2297H39.1667ZM25.7812 39.8964C20.2043 39.8962 15.0001 45.1433 15 50.782C15 56.4207 20.2043 61.6674 25.7812 61.6672C30.1641 61.6672 34.4736 58.6043 35.9375 54.4278C36.0452 54.1003 36.3742 53.8591 36.7187 53.8547H43.2812C43.6258 53.8547 43.9548 54.1003 44.0625 54.4278C45.5264 58.6043 49.8359 61.6672 54.2187 61.6672C59.7957 61.6674 65 56.4207 65 50.782C64.9999 45.1433 59.7957 39.8962 54.2187 39.8964C54.0189 39.8981 53.8453 39.9314 53.6458 39.9481C53.5745 39.9481 53.5043 39.9214 53.4375 39.8964H53.2814H26.7189H26.6147C26.5314 39.9281 26.4431 39.9447 26.3543 39.9481C26.1549 39.9314 25.9813 39.8964 25.7814 39.8964H25.7812ZM54.2708 42.657C55.8709 42.657 57.1875 43.9718 57.1875 45.5737C57.1875 47.1755 55.8709 48.4903 54.2708 48.4903C52.6708 48.4903 51.3542 47.1755 51.3542 45.5737C51.3542 43.9718 52.6708 42.657 54.2708 42.657ZM54.2708 44.3237C53.5782 44.3237 53.0208 44.8658 53.0208 45.5737C53.0208 46.2815 53.5782 46.8237 54.2708 46.8237C54.9635 46.8237 55.5208 46.2815 55.5208 45.5737C55.5208 44.8658 54.9635 44.3237 54.2708 44.3237ZM25.1562 44.6881C25.6105 44.6872 26.0179 45.1202 25.9896 45.5737V49.9487H30.3125C30.7528 49.9487 31.1458 50.3417 31.1458 50.782C31.1458 51.2222 30.7528 51.6215 30.3125 51.6153H25.9896V55.9903C25.9962 56.4305 25.5965 56.8237 25.1562 56.8237C24.7159 56.8237 24.3167 56.4305 24.3229 55.9903V51.6153H20C19.5637 51.642 19.1418 51.2702 19.1146 50.8339C19.0872 50.3976 19.4595 49.9758 19.8958 49.9487C19.9305 49.9487 19.9653 49.9487 20 49.9487H24.3229V45.5737C24.3112 45.1987 24.5847 44.8338 24.9479 44.7403C25.0147 44.7137 25.0849 44.697 25.1562 44.6887V44.6881ZM36.3021 47.4487C36.9418 47.4487 37.6658 47.4487 38.3333 47.4487C38.7736 47.4487 39.1667 47.8417 39.1667 48.282C39.1667 48.7222 38.7736 49.1215 38.3333 49.1153H36.6667C36.2303 49.2103 35.7725 48.8744 35.6771 48.4381C35.5816 48.0017 35.8657 47.544 36.3021 47.4487ZM41.3021 47.4487H43.3333C43.7736 47.4487 44.1667 47.8417 44.1667 48.282C44.1667 48.7222 43.7736 49.1215 43.3333 49.1153H41.6667C41.2303 49.2103 40.7204 48.8744 40.625 48.4381C40.5295 48.0017 40.8657 47.544 41.3021 47.4487ZM49.1146 47.8653C50.7147 47.8653 52.0312 49.1802 52.0312 50.782C52.0312 52.3838 50.7146 53.6987 49.1146 53.6987C47.5145 53.6987 46.1979 52.3838 46.1979 50.782C46.1979 49.1802 47.5144 47.8653 49.1146 47.8653ZM59.4271 47.8653C61.0271 47.8653 62.3437 49.1802 62.3437 50.782C62.3437 52.3838 61.0271 53.6987 59.4271 53.6987C57.827 53.6987 56.5104 52.3838 56.5104 50.782C56.5104 49.1802 57.827 47.8653 59.4271 47.8653ZM49.1146 49.532C48.422 49.532 47.8646 50.0742 47.8646 50.782C47.8646 51.4898 48.4219 52.032 49.1146 52.032C49.8072 52.032 50.3646 51.4898 50.3646 50.782C50.3646 50.0742 49.8071 49.532 49.1146 49.532ZM59.4271 49.532C58.7344 49.532 58.1771 50.0742 58.1771 50.782C58.1771 51.4898 58.7344 52.032 59.4271 52.032C60.1197 52.032 60.6771 51.4898 60.6771 50.782C60.6771 50.0742 60.1197 49.532 59.4271 49.532ZM54.2708 53.0737C55.8709 53.0737 57.1875 54.3885 57.1875 55.9903C57.1875 57.5922 55.8709 58.907 54.2708 58.907C52.6708 58.907 51.3542 57.5922 51.3542 55.9903C51.3542 54.3885 52.6708 53.0737 54.2708 53.0737ZM54.2708 54.7403C53.5782 54.7403 53.0208 55.2825 53.0208 55.9903C53.0208 56.6982 53.5782 57.2403 54.2708 57.2403C54.9635 57.2403 55.5208 56.6982 55.5208 55.9903C55.5208 55.2825 54.9635 54.7403 54.2708 54.7403Z" fill="#F1FAEE"/>
</g>
<defs>
<linearGradient id="paint0_linear_22_2" x1="10.6743" y1="6.01452" x2="73.5211" y2="74.3028" gradientUnits="userSpaceOnUse">
<stop offset="0.0208333" stop-color="#E63946"/>
<stop offset="0.28125" stop-color="#C75B63"/>
<stop offset="0.578125" stop-color="#4790BE"/>
<stop offset="0.895833" stop-color="#5089AD"/>
</linearGradient>
<clipPath id="clip0_22_2">
<rect width="80" height="80" fill="white"/>
</clipPath>
</defs>
</svg>
